Poliitik Aadu Kägu sõidab koos abikaasa Viiviga metsa seeenele, et mainekampaaniast närve puhata. Nendega liitub juhuslik hääletaja, rahatu rokitäht Zäk, kes on jäänud peale suvetuuri Eestimaa kolgastesse tolknema. Vältides rahvarohkeid seenemetsi, kihutab seltskond umbropsu kuhugi pärapõrgusse, mis paistab metsik ja inimtühi. Samal ajal, kui kolmik avastab end metsa eksinuna, lahvatab meediaskandaal. Uuriv ajakirjandus kahtlustab, et poliitik Aadu Kägu on isiklikuks otstarbeks kuritarvitanud riigi raha. Algab võitlus au, elu ja surma peale nii metsas kui linnas…

Stsenarist ja režissöör: Toomas Hussar
Produtsent: Piret Tibbo-Hudgins
Operaator: Rein Kotov
Kunstnik: Kristina Lõuk
Kostüümikunstnik:Eva-Maria Gramakovski
Helilooja: Arian Levin
Monteerija: Tambet Tasuja
Helirežissöör: Ivo Felt

Osades: Raivo E. Tamm, Juhan Ulfsak, Elina Reinold, Üllar Saaremäe, Hendrik Toompere jr jr., Hilje Murel, Elmo Nüganen, Mari-Liis Lill



Format                                   : AVI
Format/Info                              : Audio Video Interleave
File size                                : 703 MiB
Duration                                 : 1h 28mn
Overall bit rate                         : 1 115 Kbps
Writing application                      : VirtualDubMod 1.5.4.1 (build 2178/release)
Writing library                          : VirtualDubMod build 2178/release

Video
ID                                       : 0
Format                                   : MPEG-4 Visual
Format profile                           : Advanced Simple@L5
Format settings, BVOP                    : 1
Format settings, QPel                    : No
Format settings, GMC                     : No warppoints
Format settings, Matrix                  : Custom
Codec ID                                 : XVID
Codec ID/Hint                            : XviD
Duration                                 : 1h 28mn
Bit rate                                 : 884 Kbps
Width                                    : 608 pixels
Height                                   : 336 pixels
Display aspect ratio                     : 16:9
Frame rate                               : 25.000 fps
Color space                              : YUV
Chroma subsampling                       : 4:2:0
Bit depth                                : 8 bits
Scan type                                : Progressive
Compression mode                         : Lossy
Bits/(Pixel*Frame)                       : 0.173
Stream size                              : 557 MiB (79%)
Writing library                          : XviD 1.1.2 (UTC 2006-11-01)

Audio
ID                                       : 1
Format                                   : AC-3
Format/Info                              : Audio Coding 3
Mode extension                           : CM (complete main)
Format settings, Endianness              : Big
Codec ID                                 : 2000
Duration                                 : 1h 28mn
Bit rate mode                            : Constant
Bit rate                                 : 224 Kbps
Channel(s)                               : 2 channels
Channel positions                        : Front: L R
Sampling rate                            : 48.0 KHz
Bit depth                                : 16 bits
Compression mode                         : Lossy
Stream size                              : 141 MiB (20%)
Alignment                                : Split accross interleaves
Interleave, duration                     : 96 ms (2.40 video frames)
Interleave, preload duration             : 96 ms
Language                                 : Estonia

